<svg width="48" height="48" xmlns="http://www.w3.org/2000/svg">

 <g>
  <title>Layer 1</title>
  <path fill="#e4c6be" id="svg_1" d="m24,45.15q-4.4,0 -8.25,-1.65q-3.85,-1.65 -6.725,-4.525q-2.875,-2.875 -4.525,-6.725q-1.65,-3.85 -1.65,-8.25t1.65,-8.25q1.65,-3.85 4.525,-6.725q2.875,-2.875 6.725,-4.525q3.85,-1.65 8.25,-1.65t8.25,1.65q3.85,1.65 6.725,4.525q2.875,2.875 4.525,6.725q1.65,3.85 1.65,8.25l0,2.65q0,3.25 -2.175,5.225q-2.175,1.975 -5.475,1.975q-2,0 -3.675,-0.95q-1.675,-0.95 -2.475,-2.6q-1.2,1.85 -3.125,2.7q-1.925,0.85 -4.225,0.85q-4.1,0 -7,-2.85q-2.9,-2.85 -2.9,-7t2.9,-7.05q2.9,-2.9 7,-2.9q4.15,0 7.025,2.875t2.875,7.075l0,2.3q0,1.45 1.05,2.45q1.05,1 2.55,1q1.45,0 2.475,-1q1.025,-1 1.025,-2.45l0,-2.3q0,-7.15 -4.925,-12.075q-4.925,-4.925 -12.075,-4.925q-7.1,0 -12.05,4.95q-4.95,4.95 -4.95,12.05q0,7.15 4.925,12.075q4.925,4.925 12.075,4.925l10.7,0l0,4.15l-10.7,0zm0,-15.4q2.4,0 4.1,-1.675q1.7,-1.675 1.7,-4.075q0,-2.4 -1.7,-4.125t-4.1,-1.725q-2.4,0 -4.1,1.725q-1.7,1.725 -1.7,4.125t1.7,4.075q1.7,1.675 4.1,1.675z"/>
 </g>
</svg>