<?xml version="1.0" encoding="UTF-8" standalone="no"?><!DOCTYPE svg PUBLIC "-//W3C//DTD SVG 1.1//EN" "http://www.w3.org/Graphics/SVG/1.1/DTD/svg11.dtd"><svg width="100%" height="100%" viewBox="0 0 193 41" version="1.1" xmlns="http://www.w3.org/2000/svg" xmlns:xlink="http://www.w3.org/1999/xlink" xml:space="preserve" xmlns:serif="http://www.serif.com/" style="fill-rule:evenodd;clip-rule:evenodd;stroke-linejoin:round;stroke-miterlimit:2;"><g id="metrik-logo-white"><rect x="43.348" y="36.592" width="16.295" height="4.04" style="fill:#e4c6be;"/><rect x="43.347" y="0.906" width="16.295" height="4.04" style="fill:#e4c6be;"/><path d="M19.895,31.679l4.102,-0l0,-21.738l-4.693,-0l-6.813,9.347l-6.814,-9.347l-4.724,-0l0,21.738l4.102,-0l0,-15.807l6.938,9.472l0.809,0l7.093,-9.441l0,15.776Z" style="fill:#e4c6be;fill-rule:nonzero;"/><path d="M59.642,27.639l-12.224,0l-0,-4.918l11.788,0l0,-3.822l-11.788,0l-0,-5.043l12.224,-0l-0,-3.977l-16.295,-0l-0,21.8l16.295,-0l-0,-4.04Z" style="fill:#e4c6be;fill-rule:nonzero;"/><path d="M85.275,31.679l4.102,-0l-0,-18.072l6.905,-0l-0,-3.728l-17.912,-0l0,3.728l6.905,-0l0,18.072Z" style="fill:#e4c6be;fill-rule:nonzero;"/><path d="M133.637,31.399l-6.59,-7.434c4.134,-0.839 5.502,-3.856 5.502,-6.857c0,-3.78 -2.704,-7.198 -7.836,-7.229c-3.454,0.031 -6.907,-0 -10.356,-0l-0,21.8l4.102,-0l-0,-7.279l3.951,-0l6.348,7.279l4.879,-0l0,-0.28Zm-8.924,-17.698c2.583,0 3.734,1.75 3.734,3.501c0,1.75 -1.12,3.501 -3.734,3.501l-6.254,-0l0,-7.002l6.254,-0Z" style="fill:#e4c6be;fill-rule:nonzero;"/><rect x="150.904" y="9.879" width="4.071" height="21.8" style="fill:#e4c6be;"/><path d="M191.863,9.879l-5.101,0l-8.273,9.218l0,-9.218l-4.102,-0l0,21.8l4.102,-0l0,-9.655l9.113,9.655l5.07,-0l0,-0.25l-10.482,-10.993l9.673,-10.433l0,-0.124Z" style="fill:#e4c6be;fill-rule:nonzero;"/></g></svg>