<?xml version="1.0" encoding="UTF-8" standalone="no"?><!DOCTYPE svg PUBLIC "-//W3C//DTD SVG 1.1//EN" "http://www.w3.org/Graphics/SVG/1.1/DTD/svg11.dtd"><svg width="100%" height="100%" viewBox="0 0 90 24" version="1.1" xmlns="http://www.w3.org/2000/svg" xmlns:xlink="http://www.w3.org/1999/xlink" xml:space="preserve" xmlns:serif="http://www.serif.com/" style="fill-rule:evenodd;clip-rule:evenodd;stroke-linejoin:round;stroke-miterlimit:2;"><g><path d="M29.37,9.572c-0,-1.6 -1.535,-3.278 -4.203,-3.278c-2.992,0 -6.277,2.203 -6.78,6.6c-0.514,4.44 2.237,6.413 5.01,6.413c2.773,0 4.225,-1.085 5.71,-2.532c-1.277,-1.61 -2.926,-0.866 -3.242,-0.702c-0.523,0.291 -1.116,0.436 -1.714,0.417c-1.07,0 -2.162,-0.482 -2.162,-2.488c6.856,-0.68 7.38,-2.84 7.38,-4.43l0.001,-0Zm-3.398,0.263c-0.044,0.493 -0.24,1.337 -3.712,1.81c0.73,-2.61 2.13,-2.806 2.773,-2.806c0.014,-0.001 0.028,-0.001 0.041,-0.001c0.499,-0 0.909,0.41 0.909,0.909c-0,0.03 -0.001,0.06 -0.004,0.09l-0.007,-0.002Zm-11.612,0.428l-1.594,5.032l-1.125,-8.737c-2.51,-0 -3.86,1.798 -4.564,3.694l-1.944,5.054l-0.273,-5c-0.148,-2.324 -2.27,-3.738 -3.985,-3.738l2.074,12.64c2.63,-0.01 4.05,-1.798 4.793,-3.694l1.644,-4.297c0.015,0.175 1.136,7.992 1.136,7.992c2.642,-0 4.062,-1.677 4.823,-3.508l3.7,-9.132c-2.605,-0 -3.978,1.787 -4.687,3.694l0.002,-0Zm24.706,-4c-1.627,-0 -2.87,0.888 -3.92,2.192l0,-0.01l0.938,-7.597c-2.162,-0 -3.92,1.886 -4.258,4.692l-1.626,13.57c1.245,-0 2.566,-0.362 3.276,-1.283c0.634,0.822 1.583,1.48 2.992,1.48c3.646,-0 6.147,-4.253 6.147,-8.244c-0.022,-3.64 -1.78,-4.79 -3.538,-4.79l-0.011,-0.01Zm-0.34,6.523c-0.38,2.225 -1.616,3.738 -2.805,3.738c-1.189,-0 -1.714,-0.537 -1.714,-0.537c0.23,-1.95 0.372,-3.146 0.808,-4.177c0.436,-1.031 1.474,-2.675 2.555,-2.675c1.06,-0 1.54,1.414 1.157,3.65l-0.001,0.001Zm12.982,-6.227l-2.544,-0l0.01,-0.132c0.175,-1.666 0.568,-2.543 1.864,-2.686c0.885,-0.088 1.278,-0.548 1.376,-1.052l0.317,-1.765c-5.1,-0.033 -6.714,2.18 -7.125,5.558l-0.01,0.077l-0.055,-0c-0.83,-0 -1.746,0.943 -1.9,2.138l-0.055,0.438l1.704,-0l-1.43,11.86l-0.438,2.127c0.055,-0 0.12,0.01 0.174,0.01c2.39,-0.088 3.92,-1.984 4.258,-4.736l1.116,-9.263l0.8,-0c0.786,-0 1.704,-0.79 1.864,-2.105l0.074,-0.469Zm13.232,-0.22c-2.937,-0 -5.71,2.17 -6.56,5.58c-0.85,3.41 0.438,7.443 4.76,7.443c4.322,-0 6.797,-4.2 6.797,-7.696c0.004,-3.475 -2.342,-5.328 -4.996,-5.328l-0.001,0.001Zm1.19,6.336c-0.152,1.546 -0.83,3.892 -2.686,3.892c-1.856,-0 -1.605,-2.74 -1.425,-4.045c0.197,-1.392 0.972,-3.376 2.642,-3.376c1.502,-0 1.643,1.787 1.47,3.53l-0.001,-0.001Zm18.32,-2.423l-1.594,5.032c-0.043,-0.395 -1.124,-8.737 -1.124,-8.737c-2.51,-0 -3.854,1.798 -4.558,3.694l-1.944,5.054c-0.01,-0.362 -0.273,-5 -0.273,-5c-0.158,-2.324 -2.278,-3.738 -4,-3.738l2.063,12.64c2.63,-0.01 4.05,-1.798 4.793,-3.694l1.638,-4.297c0.01,0.175 1.136,7.992 1.136,7.992c2.642,-0 4.056,-1.677 4.823,-3.508l3.703,-9.132c-2.598,-0 -3.974,1.787 -4.673,3.694l0.01,-0Zm-30.34,-9.33l-2.14,17.33l-0.438,2.138c0.054,-0 0.12,0.01 0.174,0.01c2.302,-0.033 3.94,-2.06 4.247,-4.615l1.233,-9.943c0.374,-3.037 -1.427,-4.922 -3.076,-4.922l-0,0.002Z" style="fill:#e4c6be;fill-rule:nonzero;"/></g></svg>